<svg height="56.091667mm" viewBox="0 0 183.09167 56.091667" width="183.09167mm" xmlns="http://www.w3.org/2000/svg"><g transform="translate(-15.610417 -3.704167)"><rect fill="#ececec" height="55.5625" ry=".483725" stroke="#24631e" stroke-width=".529167" width="76.729164" x="121.70834" y="3.96875"/><rect fill="#ececec" height="55.5625" ry=".483724" stroke="#24631e" stroke-width=".529167" width="76.729164" x="15.875" y="3.96875"/><path d="m17.465477 13.229167h24.867857v30.932089h-24.867857z" fill="#fff" stroke="#000" stroke-width=".529167"/><ellipse cx="67.570641" cy="19.748705" fill="#fff" rx="8.596165" ry="7.622691" stroke="#000"/><text font-family="sans-serif" font-size="1.76389" stroke-width=".264583" text-anchor="middle" x="67.578911" y="19.177198"><tspan font-size="3.52778" stroke-width=".264583" text-anchor="middle" x="67.578911" y="19.177198">waypipe</tspan><tspan font-size="3.52778" stroke-width=".264583" text-anchor="middle" x="67.578911" y="23.586924">client</tspan></text><rect fill="#fff" height="5.291667" ry="2.645833" stroke="#000" stroke-width=".529167" width="30.42708" x="54.239582" y="29.104166"/><g stroke-width=".264583"><text font-family="sans-serif" font-size="1.76389" x="56.474945" y="32.968662"><tspan font-size="3.52778" stroke-width=".264583" x="56.474945" y="32.968662">conn. handler</tspan></text><path d="m54.239583 31.75-11.90625-9.260417" fill="none" stroke="#1a18e0"/><path d="m54.239583 38.364583-11.90625-10.583333" fill="none" stroke="#1a18e0"/><path d="m54.239583 44.979167-11.90625-11.90625" fill="none" stroke="#1a18e0"/></g><ellipse cx="148.21313" cy="18.575251" fill="#fff" rx="8.596165" ry="7.622691" stroke="#000"/><text font-family="sans-serif" font-size="1.76389" stroke-width=".264583" text-anchor="middle" x="148.52246" y="18.091148"><tspan font-size="3.52777" stroke-width=".264583" text-anchor="middle" x="148.52246" y="18.091148">waypipe</tspan><tspan font-size="3.52777" stroke-width=".264583" text-anchor="middle" x="148.52246" y="22.50086">server</tspan></text><g transform="translate(.000001 6.614585)"><rect fill="#fff" height="5.291667" ry="2.645833" stroke="#000" stroke-width=".529167" width="30.42708" x="54.239582" y="29.104166"/><text font-family="sans-serif" font-size="1.76389" stroke-width=".264583" x="56.474945" y="32.968662"><tspan font-size="3.52778" stroke-width=".264583" x="56.474945" y="32.968662">conn. handler</tspan></text></g><g transform="translate(.000001 13.229168)"><rect fill="#fff" height="5.291667" ry="2.645833" stroke="#000" stroke-width=".529167" width="30.42708" x="54.239582" y="29.104166"/><text font-family="sans-serif" font-size="1.76389" stroke-width=".264583" x="56.474945" y="32.968662"><tspan font-size="3.52778" stroke-width=".264583" x="56.474945" y="32.968662">conn. handler</tspan></text></g><path d="m85.989582 17.197916h39.687498" fill="none" stroke="#000" stroke-width=".529167"/><path d="m85.989583 22.489583h39.687497" fill="none" stroke="#000" stroke-width=".529167"/><text font-family="sans-serif" font-size="1.76389" stroke-width=".264583" x="81.686531" y="15.386056"><tspan font-size="3.52778" stroke-width=".264583" x="81.686531" y="15.386056">communication channel (ssh)</tspan></text><g transform="translate(78.052086 -1.322916)"><rect fill="#fff" height="5.291667" ry="2.645833" stroke="#000" stroke-width=".529167" width="30.42708" x="54.239582" y="29.104166"/><text font-family="sans-serif" font-size="1.76389" stroke-width=".264583" x="56.474945" y="32.968662"><tspan font-size="3.52778" stroke-width=".264583" x="56.474945" y="32.968662">conn. handler</tspan></text></g><g transform="translate(78.052089 5.291669)"><rect fill="#fff" height="5.291667" ry="2.645833" stroke="#000" stroke-width=".529167" width="30.42708" x="54.239582" y="29.104166"/><text font-family="sans-serif" font-size="1.76389" stroke-width=".264583" x="56.474945" y="32.968662"><tspan font-size="3.52778" stroke-width=".264583" x="56.474945" y="32.968662">conn. handler</tspan></text></g><g transform="translate(78.052089 11.906252)"><rect fill="#fff" height="5.291667" ry="2.645833" stroke="#000" stroke-width=".529167" width="30.42708" x="54.239582" y="29.104166"/><text font-family="sans-serif" font-size="1.76389" stroke-width=".264583" x="56.474945" y="32.968662"><tspan font-size="3.52778" stroke-width=".264583" x="56.474945" y="32.968662">conn. handler</tspan></text></g><path d="m84.666666 31.75h1.322916l1.322917-1.322917.000001-1.322916-7.9375-7.9375v-1.322917l1.322917-1.322917h52.916663l1.32292 1.322917v1.322916l-7.9375 6.614584v1.322916l1.32292 1.322917h3.96874" fill="none" stroke="#bf3838" stroke-width=".264583"/><path d="m84.666666 38.364583h1.322916l2.645834-2.645833v-6.614584l-6.614584-6.614583v-1.322917l1.322917-1.322916h46.302081l1.32292 1.322916v1.322917l-5.29167 3.96875v9.260417l1.32292 1.322916h5.29166" fill="none" stroke="#bf3838" stroke-width=".264583"/><path d="m132.29166 43.656249h-5.29166l-2.64583-2.645833v-14.552083l2.64583-2.645833v-1.322917l-1.32292-1.322917h-39.687498l-1.322916 1.322917v1.322917l5.291666 5.291666v11.90625l-3.96875 3.96875h-1.322916" fill="none" stroke="#bf3838" stroke-width=".264583"/><g transform="translate(.000003 -10.583334)"><path d="m173.30208 25.135417-3.96875 2.645833 3.96875 2.645833h17.19792l3.96875-2.645833-3.96875-2.645833z" fill="#fff" stroke="#000" stroke-width=".529167"/><text font-family="sans-serif" font-size="1.76389" stroke-width=".264583" x="172.1114" y="28.844614"><tspan font-size="3.52778" stroke-width=".264583" x="172.1114" y="28.844614">application</tspan></text></g><path d="m169.33333 17.197917-6.61458 13.229166" fill="none" stroke="#1a18e0" stroke-width=".264583"/><path d="m162.71875 37.041666 6.61458-11.906249" fill="none" stroke="#1a18e0" stroke-width=".264583"/><path d="m169.33333 33.072917-6.61458 10.583332" fill="none" stroke="#1a18e0" stroke-width=".264583"/><g transform="translate(.000003 5.291666)"><path d="m173.30208 25.135417-3.96875 2.645833 3.96875 2.645833h17.19792l3.96875-2.645833-3.96875-2.645833z" fill="#fff" stroke="#000" stroke-width=".529167"/><text font-family="sans-serif" font-size="1.76389" stroke-width=".264583" x="172.1114" y="28.844614"><tspan font-size="3.52778" stroke-width=".264583" x="172.1114" y="28.844614">application</tspan></text></g><g transform="translate(.000003 -2.645834)"><path d="m173.30208 25.135417-3.96875 2.645833 3.96875 2.645833h17.19792l3.96875-2.645833-3.96875-2.645833z" fill="#fff" stroke="#000" stroke-width=".529167"/><text font-family="sans-serif" font-size="1.76389" stroke-width=".264583" x="172.1114" y="28.844614"><tspan font-size="3.52778" stroke-width=".264583" x="172.1114" y="28.844614">application</tspan></text></g><g transform="translate(-115.09375 25.135416)"><path d="m173.30208 25.135417-3.96875 2.645833 3.96875 2.645833h17.19792l3.96875-2.645833-3.96875-2.645833z" fill="#fff" stroke="#000" stroke-width=".529167"/><text font-family="sans-serif" font-size="1.76389" stroke-width=".264583" x="172.1114" y="28.844614"><tspan font-size="3.52778" stroke-width=".264583" x="172.1114" y="28.844614">application</tspan></text></g><path d="m54.239583 52.916667-11.90625-14.552084" fill="none" stroke="#1a18e0" stroke-width=".264583"/><text font-family="sans-serif" font-size="3.52778" stroke-width=".264583" x="19.263605" y="29.624052"><tspan font-size="3.52778" stroke-width=".264583" x="19.263605" y="29.624052">Compositor</tspan></text></g></svg>